<svg xmlns="http://www.w3.org/2000/svg" width="500" viewBox="0 0 375 375" height="500" version="1.0">
  <path
    d="M318.182 123.733q.61-1.388 1.594-2.688.996-1.295 0-3.5-1.394 1.393-2.5 2.797a31 31 0 01-2.281 2.594 6909 6909 0 01-26.875 32.25 2977 2977 0 01-27.25 32.063 105 105 0 01-9.094 9.484q-4.894 4.5-9.687 9.094a17.9 17.9 0 01-5.297 3.39c-1.93.805-4.09 1-6.485.594q-5.8-.797-4.797-6.187c.407-2 .836-3.961 1.297-5.891a30 30 0 011.906-5.5q4.98-11.982 10.079-23.953a4061 4061 0 0010.093-23.969 668 668 0 004.282-9.594 588 588 0 004.109-9.578q.388-1.2.688-2.594.309-1.404.906-3.406-3.207 1.408-4.906 3.313a43 43 0 00-3.079 3.875 3640 3640 0 01-20.078 25.468 623 623 0 00-19.469 25.86 1502 1502 0 01-24.373 33.156 1171 1171 0 01-25.36 32.36q-1.8 2.188-3.797 4.484a172 172 0 00-3.797 4.5q-5.593 6.387-12.968 3-1.406-2.595-.297-4.703a69 69 0 001.889-3.891c3.2-6.656 6.36-13.273 9.485-19.86a1694 1694 0 019.484-19.687 5439 5439 0 0116.469-34.64 2267 2267 0 0016.281-34.657 115 115 0 004.594-10.984q1.997-5.591 4-11.188a21.2 21.2 0 001.187-4.297q.405-2.295-.984-4.89-1.406.595-2.812 1.297-1.395.705-2.579 1.703a702 702 0 01-10.797 9.781 149 149 0 00-10.374 10.188q-6.205 6.597-10 14.39-3.785 7.782-1.985 17.766-3.001.41-4.797-.89-1.799-1.312-3-3.298-2.391-4.406-1.39-9.796 1.2-7.388 5.187-13.376c8.383-12.382 19.035-22.703 31.953-30.953a29 29 0 017.297-3.39q3.89-1.201 8.281-.61 7.185 1 6.797 7.985-.204 2.596-.61 5.094a25.3 25.3 0 01-1.187 4.703 398 398 0 01-3.296 9.484 106 106 0 01-3.891 9.281 2987 2987 0 01-15.39 33.063 19418 19418 0 00-15.579 33.047 106 106 0 00-1.89 4.5c-.594 1.53-.762 3.226-.5 5.078a271 271 0 013.187-4.282c1.07-1.406 2.14-2.835 3.203-4.296q7.594-10.981 15.281-22.063a854 854 0 0115.672-21.875 575 575 0 0115.282-19.375 4301 4301 0 0115.687-18.969q2.39-2.999 5.281-5.593a841 841 0 015.89-5.203q6-4.98 14.579-3.985 7.388.798 6.203 7.984a39.4 39.4 0 01-2.61 8.594 178 178 0 01-4.187 9.688 906 906 0 00-4.39 9.484 1505 1505 0 01-9.297 20.969 3403 3403 0 00-9.281 20.766q-.797 1.797-1.407 4-.597 2.19-1.781 5.593 2.184-1.794 3.578-2.797 1.407-.996 2.203-2.203a9370 9370 0 0130.766-36.14 671 671 0 0029.547-37.157 3125 3125 0 0116.875-22.656 3087 3087 0 0117.078-22.484 82 82 0 013.797-4.688 51 51 0 014.203-4.297c4.52-4.257 9.91-4.328 16.172-.203q.795 2.611-.11 5a513 513 0 00-1.687 4.594q-1.8 4.19-3.797 8.39a522 522 0 01-4 8.188 38199 38199 0 01-25.562 49.438 28849 28849 0 00-25.563 49.421 1298 1298 0 00-19.281 39.844 671 671 0 00-17.266 40.844 151 151 0 00-5.984 18.172 20 20 0 00-.906 6.594q.107 3.387 4.703 5.984-4.206 1.606-7.297 1.297-3.096-.3-5.89-2.094-3.798-2.002-3.595-5.984v-5.39q0-2.802.797-5.392a358 358 0 013.39-12.296 195 195 0 014-12.078 657 657 0 0120.266-48.922 1064 1064 0 0123.47-47.547 3657 3657 0 009.187-17.266q4.594-8.684 9.187-17.281m0 0"
    fill="#c8c8c8" />
  <path
    d="M176.821 80.66v55.36q-2.94-11.421-9.829-21.516c-4.586-6.738-10-12.598-16.25-17.578-6.242-4.977-13.218-8.93-20.937-11.86q-11.565-4.406-24.172-4.406zm-74.11 102.531q7.905.001 15.516-2.78 7.624-2.797 13.765-7.485a47.7 47.7 0 0010.547-11.125c2.938-4.29 5.086-8.88 6.453-13.766v70.297c-1.367-4.875-3.515-9.457-6.453-13.75a47.6 47.6 0 00-10.547-11.14q-6.14-4.687-13.765-7.47c-5.074-1.85-10.246-2.78-15.516-2.78v83.187q-.001 7.314 5.125 13.328 5.121 6 12.75 6h-87q7.312 0 12.438-6 5.123-6.014 5.125-13.328V99.989q-.002-7.314-5.125-13.313c-3.418-4.008-7.563-6.016-12.438-6.016h69.125zm0 0" />
</svg>